<svg width="8" height="14" viewBox="0 0 8 14" fill="none" xmlns="http://www.w3.org/2000/svg">
<path d="M0.766663 13.0667C0.599996 12.9 0.516663 12.7027 0.516663 12.4747C0.516663 12.2471 0.599996 12.05 0.766663 11.8833L5.65 7.00001L0.749996 2.10001C0.59444 1.94445 0.516663 1.75001 0.516663 1.51667C0.516663 1.28334 0.599996 1.08334 0.766663 0.916672C0.933329 0.750005 1.13066 0.666672 1.35866 0.666672C1.58622 0.666672 1.78333 0.750005 1.95 0.916672L7.55 6.53334C7.61666 6.60001 7.664 6.67223 7.692 6.75001C7.71955 6.82778 7.73333 6.91112 7.73333 7.00001C7.73333 7.08889 7.71955 7.17223 7.692 7.25001C7.664 7.32778 7.61666 7.40001 7.55 7.46667L1.93333 13.0833C1.77777 13.2389 1.58622 13.3167 1.35866 13.3167C1.13066 13.3167 0.933329 13.2333 0.766663 13.0667Z" fill="#929292"/>
</svg>
